{"title":"india-big tits","uid":5071294,"size":388729598,"categoryP":"porn","categoryS":"movies","magnet":"?xt=urn:btih:8da2341c94c600e8426e36be5f5db8fe7f09926f&amp;dn=india-big+tits&amp;tr=udp%3A%2F%2Ftracker.openbittorrent.com%3A80&amp;tr=udp%3A%2F%2Fopen.demonii.com%3A1337&amp;tr=udp%3A%2F%2Ftracker.coppersurfer.tk%3A6969&amp;tr=udp%3A%2F%2Fexodus.desync.com%3A6969","seeders":0,"leechers":0,"uploader":"siddhattha","files":3,"time":1251429347,"description":"Video \nID : 224 (0xE0) \nFormat : MPEG Video \nFormat version : Version 1 \nFormat settings, Matrix : Default \nDuration : 17mn 52s \nBit rate mode : Constant \nBit rate : 2 561 Kbps \nNominal bit rate : 2 524 Kbps \nWidth : 640 pixels \nHeight : 480 pixels \nDisplay aspect ratio : 4:3 \nFrame rate : 29.970 fps \nScan type : Progressive \nBits/(Pixel*Frame) : 0.278 \nStream size : 327 MiB (88%) \n\nAudio \nID : 192 (0xC0) \nFormat : MPEG Audio \nFormat version : Version 1 \nFormat profile : Layer 2 \nDuration : 17mn 52s \nBit rate mode : Constant \nBit rate : 224 Kbps \nChannel(s) : 2 channels \nSampling rate : 44.1 KHz \nResolution : 16 bits \nVideo delay : -77ms \nStream size : 28.6 MiB (8%) \n\nText \nID : 0 (0x0) \nFormat : RLE \nFormat/Info : Run-length encoding","torrent":{"xt":"urn:btih:8da2341c94c600e8426e36be5f5db8fe7f09926f","amp;dn":"india-big+tits","amp;tr":["udp%3A%2F%2Ftracker.openbittorrent.com%3A80","udp%3A%2F%2Fopen.demonii.com%3A1337","udp%3A%2F%2Ftracker.coppersurfer.tk%3A6969","udp%3A%2F%2Fexodus.desync.com%3A6969"],"infoHash":"8da2341c94c600e8426e36be5f5db8fe7f09926f","infoHashBuffer":{"type":"Buffer","data":[141,162,52,28,148,198,0,232,66,110,54,190,95,93,184,254,127,9,146,111]},"announce":[],"urlList":[]}}